<?xml version="1.0" encoding="UTF-8" standalone="no"?>
<!-- Created with Inkscape (http://www.inkscape.org/) -->

<svg
   xmlns:dc="http://purl.org/dc/elements/1.1/"
   xmlns:cc="http://creativecommons.org/ns#"
   xmlns:rdf="http://www.w3.org/1999/02/22-rdf-syntax-ns#"
   xmlns:svg="http://www.w3.org/2000/svg"
   xmlns="http://www.w3.org/2000/svg"
   xmlns:sodipodi="http://sodipodi.sourceforge.net/DTD/sodipodi-0.dtd"
   xmlns:inkscape="http://www.inkscape.org/namespaces/inkscape"
   version="1.1"
   id="svg2"
   xml:space="preserve"
   width="700"
   height="700"
   viewBox="0 0 700 700"
   sodipodi:docname="accenture-logo.svg"
   inkscape:version="0.92.4 (5da689c313, 2019-01-14)"
   inkscape:export-filename="G:\Users\suitedoalex\sites\accenture-logo-0.png"
   inkscape:export-xdpi="561.73999"
   inkscape:export-ydpi="561.73999"><metadata
     id="metadata8"><rdf:RDF><cc:Work
         rdf:about=""><dc:format>image/svg+xml</dc:format><dc:type
           rdf:resource="http://purl.org/dc/dcmitype/StillImage" /><dc:title></dc:title></cc:Work></rdf:RDF></metadata><defs
     id="defs6"><clipPath
       clipPathUnits="userSpaceOnUse"
       id="clipPath20"><path
         d="M 32.261,30.218 H 158.356 V 50.896 H 32.261 Z"
         id="path18"
         inkscape:connector-curvature="0" /></clipPath><linearGradient
       x1="0"
       y1="0"
       x2="1"
       y2="0"
       gradientUnits="userSpaceOnUse"
       gradientTransform="matrix(3.0142214,3.0142214,3.0142214,-3.0142214,38.289597,32.811515)"
       spreadMethod="pad"
       id="linearGradient46"><stop
         style="stop-opacity:1;stop-color:#5f0095"
         offset="0"
         id="stop38" /><stop
         style="stop-opacity:1;stop-color:#5f0095"
         offset="0.133334"
         id="stop40" /><stop
         style="stop-opacity:1;stop-color:#a100ff"
         offset="0.715315"
         id="stop42" /><stop
         style="stop-opacity:1;stop-color:#a100ff"
         offset="1"
         id="stop44" /></linearGradient><clipPath
       clipPathUnits="userSpaceOnUse"
       id="clipPath60"><path
         d="M 32.261,30.218 H 158.356 V 50.896 H 32.261 Z"
         id="path58"
         inkscape:connector-curvature="0" /></clipPath><clipPath
       clipPathUnits="userSpaceOnUse"
       id="clipPath74"><path
         d="m 299.017,58.06 176.224,-4.58 11.999,454.812 -176.224,4.581 z"
         id="path72"
         inkscape:connector-curvature="0" /></clipPath><clipPath
       clipPathUnits="userSpaceOnUse"
       id="clipPath86"><path
         d="M 0,0 H 960 V 540 H 0 Z"
         id="path84"
         inkscape:connector-curvature="0" /></clipPath><clipPath
       clipPathUnits="userSpaceOnUse"
       id="clipPath94"><path
         d="M 32.0864,424.425 H 247.211 V 163.671 H 32.0864 Z"
         id="path92"
         inkscape:connector-curvature="0" /></clipPath><clipPath
       clipPathUnits="userSpaceOnUse"
       id="clipPath98"><path
         d="m 41.122,173.19 186.068,-8.063 10.724,243.784 -186.069,8.063 z"
         id="path96"
         inkscape:connector-curvature="0" /></clipPath><clipPath
       clipPathUnits="userSpaceOnUse"
       id="clipPath120"><path
         d="M 300.137,100.498 905.601,84.762 916.024,479.856 310.559,495.591 Z"
         id="path118"
         inkscape:connector-curvature="0" /></clipPath><clipPath
       clipPathUnits="userSpaceOnUse"
       id="clipPath132"><path
         d="M 0,0 H 960 V 540 H 0 Z"
         id="path130"
         inkscape:connector-curvature="0" /></clipPath><clipPath
       clipPathUnits="userSpaceOnUse"
       id="clipPath140"><path
         d="M 66.2956,306.218 H 223.425 V 77.7164 H 66.2956 Z"
         id="path138"
         inkscape:connector-curvature="0" /></clipPath><clipPath
       clipPathUnits="userSpaceOnUse"
       id="clipPath144"><path
         d="m 75.65,292.071 11.238,-212.83 127.497,6.632 -11.237,212.83 z"
         id="path142"
         inkscape:connector-curvature="0" /></clipPath><clipPath
       clipPathUnits="userSpaceOnUse"
       id="clipPath166"><path
         d="M 175.437,480.816 H 348.295 V 88.5644 H 175.437 Z"
         id="path164"
         inkscape:connector-curvature="0" /></clipPath><clipPath
       clipPathUnits="userSpaceOnUse"
       id="clipPath170"><path
         d="M 184.734,467.403 201.335,90.006 339.26,95.983 322.659,473.38 Z"
         id="path168"
         inkscape:connector-curvature="0" /></clipPath><clipPath
       clipPathUnits="userSpaceOnUse"
       id="clipPath212"><path
         d="M 0,0 H 960 V 540 H 0 Z"
         id="path210"
         inkscape:connector-curvature="0" /></clipPath><clipPath
       clipPathUnits="userSpaceOnUse"
       id="clipPath220"><path
         d="M 477.85,413.869 H 887.977 V 387.285 H 477.85 Z"
         id="path218"
         inkscape:connector-curvature="0" /></clipPath><clipPath
       clipPathUnits="userSpaceOnUse"
       id="clipPath244"><path
         d="M 0,0 H 960 V 540 H 0 Z"
         id="path242"
         inkscape:connector-curvature="0" /></clipPath></defs><sodipodi:namedview
     pagecolor="#ffffff"
     bordercolor="#666666"
     borderopacity="1"
     objecttolerance="10"
     gridtolerance="10"
     guidetolerance="10"
     inkscape:pageopacity="0"
     inkscape:pageshadow="2"
     inkscape:window-width="1600"
     inkscape:window-height="837"
     id="namedview4"
     showgrid="false"
     inkscape:zoom="0.32777778"
     inkscape:cx="640.09213"
     inkscape:cy="360.80988"
     inkscape:window-x="-8"
     inkscape:window-y="-8"
     inkscape:window-maximized="1"
     inkscape:current-layer="g10" /><g
     id="g10"
     inkscape:groupmode="layer"
     inkscape:label="Accenture-Technology-Vision-2020-Full-Report"
     transform="matrix(1.3333333,0,0,-1.3333333,0,700)"><g
       id="g234"
       transform="matrix(3.6931367,0,0,3.6931367,295.07901,285.35521)"
       inkscape:export-filename="G:\Users\suitedoalex\sites\accenture-logo-4.png"
       inkscape:export-xdpi="73.233307"
       inkscape:export-ydpi="73.233307"><path
         d="M 0,0 6.13,2.279 0,4.674 V 7.846 L 10.499,3.618 V 0.987 L 0,-3.265 Z"
         style="fill:#a100ff;fill-opacity:1;fill-rule:nonzero;stroke:none"
         id="path236"
         inkscape:connector-curvature="0" /></g><g
       id="g238"
       transform="matrix(3.6931367,0,0,3.6931367,-54.177971,-1613.2451)"
       inkscape:export-filename="G:\Users\suitedoalex\sites\accenture-logo-4.png"
       inkscape:export-xdpi="73.233307"
       inkscape:export-ydpi="73.233307"><g
         id="g240"
         clip-path="url(#clipPath244)"><g
           id="g246"
           transform="translate(36.5452,493.8657)"><path
             d="m 0,0 c -2.208,0 -4.04,1.127 -4.04,3.617 v 0.141 c 0,3.03 2.63,4.016 5.801,4.016 h 1.527 v 0.587 c 0,1.222 -0.54,1.974 -1.808,1.974 -1.151,0 -1.762,-0.658 -1.856,-1.598 h -3.288 c 0.234,2.725 2.395,4.064 5.308,4.064 2.959,0 5.074,-1.269 5.074,-4.322 V 0.258 H 3.359 v 1.41 C 2.771,0.775 1.644,0 0,0 M 3.288,4.345 V 5.519 H 1.926 c -1.692,0 -2.56,-0.469 -2.56,-1.573 V 3.829 c 0,-0.846 0.517,-1.434 1.668,-1.434 1.174,0 2.254,0.658 2.254,1.95 M 14.494,0 C 11.088,0 8.622,2.114 8.622,6.271 v 0.165 c 0,4.157 2.631,6.365 5.895,6.365 2.795,0 5.098,-1.41 5.379,-4.627 h -3.288 c -0.212,1.197 -0.822,1.973 -2.02,1.973 -1.457,0 -2.466,-1.151 -2.466,-3.571 V 6.201 c 0,-2.49 0.892,-3.618 2.49,-3.618 1.174,0 2.042,0.87 2.23,2.209 h 3.125 C 19.732,1.997 17.829,0 14.494,0 m 12.779,0 c -3.406,0 -5.872,2.114 -5.872,6.271 v 0.165 c 0,4.157 2.631,6.365 5.896,6.365 2.795,0 5.097,-1.41 5.379,-4.627 h -3.289 c -0.211,1.197 -0.822,1.973 -2.02,1.973 -1.456,0 -2.466,-1.151 -2.466,-3.571 V 6.201 c 0,-2.49 0.892,-3.618 2.49,-3.618 1.174,0 2.043,0.87 2.231,2.209 h 3.124 C 32.511,1.997 30.608,0 27.273,0 M 40.147,0 C 36.6,0 34.181,2.114 34.181,6.201 v 0.235 c 0,4.11 2.56,6.365 5.848,6.365 3.054,0 5.614,-1.715 5.614,-5.778 v -1.48 h -7.986 c 0.141,-2.208 1.08,-3.053 2.56,-3.053 1.315,0 2.02,0.704 2.255,1.597 h 3.171 C 45.267,1.761 43.365,0 40.147,0 m -2.443,7.822 h 4.604 c -0.071,1.808 -0.893,2.583 -2.256,2.583 -1.08,0 -2.066,-0.587 -2.348,-2.583 m 10.054,4.72 h 3.429 V 10.71 c 0.611,1.152 1.832,2.091 3.711,2.091 2.232,0 3.712,-1.339 3.712,-4.322 V 0.258 h -3.43 v 7.704 c 0,1.433 -0.587,2.068 -1.832,2.068 -1.197,0 -2.161,-0.729 -2.161,-2.279 V 0.258 h -3.429 z m 17.266,3.712 v -3.712 h 2.349 V 9.983 H 65.024 V 4.157 c 0,-0.916 0.422,-1.338 1.221,-1.338 0.493,0 0.869,0.07 1.198,0.211 V 0.352 C 67.044,0.235 66.362,0.094 65.517,0.094 c -2.678,0 -3.946,1.221 -3.946,3.711 v 6.178 h -1.433 v 2.559 h 1.433 v 2.303 z M 80.293,0.258 h -3.43 V 2.067 C 76.276,0.892 75.125,0 73.293,0 71.085,0 69.464,1.339 69.464,4.228 v 8.314 h 3.453 V 4.744 c 0,-1.409 0.564,-2.066 1.785,-2.066 1.198,0 2.161,0.751 2.161,2.278 v 7.586 h 3.43 z m 2.491,12.284 h 3.429 v -2.254 c 0.728,1.644 1.879,2.419 3.688,2.419 V 9.325 c -2.326,0 -3.688,-0.705 -3.688,-2.749 V 0.258 H 82.784 Z M 96.949,0 c -3.547,0 -5.966,2.114 -5.966,6.201 v 0.235 c 0,4.11 2.56,6.365 5.848,6.365 3.053,0 5.614,-1.715 5.614,-5.778 v -1.48 h -7.986 c 0.141,-2.208 1.08,-3.053 2.56,-3.053 1.315,0 2.02,0.704 2.255,1.597 h 3.171 C 102.069,1.761 100.167,0 96.949,0 m -2.444,7.822 h 4.604 c -0.07,1.808 -0.892,2.583 -2.255,2.583 -1.08,0 -2.066,-0.587 -2.349,-2.583"
             style="fill:#000000;fill-opacity:1;fill-rule:nonzero;stroke:none"
             id="path248"
             inkscape:connector-curvature="0" /></g></g></g></g></svg>